<?xml version="1.0" encoding="UTF-8" standalone="no"?>
<!DOCTYPE svg PUBLIC "-//W3C//DTD SVG 1.1//EN"
 "http://www.w3.org/Graphics/SVG/1.1/DTD/svg11.dtd">
<!-- Generated by graphviz version 2.40.1 (20161225.0304)
 -->
<!-- Title: largeRelationshipsDiagram Pages: 1 -->
<svg width="672pt" height="1142pt"
 viewBox="0.00 0.00 672.00 1142.20" xmlns="http://www.w3.org/2000/svg" xmlns:xlink="http://www.w3.org/1999/xlink">
<g id="graph0" class="graph" transform="scale(1 1) rotate(0) translate(4 1138.2)">
<title>largeRelationshipsDiagram</title>
<polygon fill="#ffffff" stroke="transparent" points="-4,4 -4,-1138.2 668,-1138.2 668,4 -4,4"/>
<text text-anchor="middle" x="72.4936" y="-7.3" font-family="Helvetica,sans-Serif" font-size="11.00" fill="#000000">Generated by SchemaSpy</text>
<!-- ExampleTable -->
<g id="node1" class="node">
<title>ExampleTable</title>
<g id="a_node1"><a xlink:href="../../tables/ExampleTable.html" xlink:title="ExampleTable" target="_top">
<polygon fill="#ffffff" stroke="transparent" points="190,-912.2 190,-1130.2 411,-1130.2 411,-912.2 190,-912.2"/>
<polygon fill="#f5f5f5" stroke="transparent" points="190.5,-1107.2 190.5,-1130.2 411.5,-1130.2 411.5,-1107.2 190.5,-1107.2"/>
<polygon fill="none" stroke="#000000" points="190.5,-1107.2 190.5,-1130.2 411.5,-1130.2 411.5,-1107.2 190.5,-1107.2"/>
<text text-anchor="start" x="195.5" y="-1116.3" font-family="Helvetica,sans-Serif" font-weight="bold" font-size="11.00" fill="#000000">ExampleTable</text>
<text text-anchor="start" x="376.5437" y="-1115.3" font-family="Helvetica,sans-Serif" font-size="11.00" fill="#000000">[table]</text>
<polygon fill="none" stroke="#000000" points="190.5,-1085.2 190.5,-1107.2 411.5,-1107.2 411.5,-1085.2 190.5,-1085.2"/>
<image xlink:href="../../images/primaryKeys.png" width="11px" height="12px" preserveAspectRatio="xMinYMin meet" x="195.5" y="-1102.2"/>
<text text-anchor="start" x="210.5" y="-1092.3" font-family="Helvetica,sans-Serif" font-size="11.00" fill="#000000">cldf_id</text>
<polygon fill="none" stroke="#000000" points="190.5,-1063.2 190.5,-1085.2 411.5,-1085.2 411.5,-1063.2 190.5,-1063.2"/>
<text text-anchor="start" x="210.5" y="-1070.3" font-family="Helvetica,sans-Serif" font-size="11.00" fill="#000000">cldf_languageReference</text>
<polygon fill="none" stroke="#000000" points="190.5,-1041.2 190.5,-1063.2 411.5,-1063.2 411.5,-1041.2 190.5,-1041.2"/>
<text text-anchor="start" x="210.5" y="-1048.3" font-family="Helvetica,sans-Serif" font-size="11.00" fill="#000000">cldf_primaryText</text>
<polygon fill="none" stroke="#000000" points="190.5,-1019.2 190.5,-1041.2 411.5,-1041.2 411.5,-1019.2 190.5,-1019.2"/>
<text text-anchor="start" x="210.5" y="-1026.3" font-family="Helvetica,sans-Serif" font-size="11.00" fill="#000000">cldf_analyzedWord</text>
<polygon fill="none" stroke="#000000" points="190.5,-997.2 190.5,-1019.2 411.5,-1019.2 411.5,-997.2 190.5,-997.2"/>
<text text-anchor="start" x="210.5" y="-1004.3" font-family="Helvetica,sans-Serif" font-size="11.00" fill="#000000">cldf_gloss</text>
<polygon fill="none" stroke="#000000" points="190.5,-975.2 190.5,-997.2 411.5,-997.2 411.5,-975.2 190.5,-975.2"/>
<text text-anchor="start" x="210.5" y="-982.3" font-family="Helvetica,sans-Serif" font-size="11.00" fill="#000000">cldf_translatedText</text>
<polygon fill="none" stroke="#000000" points="190.5,-953.2 190.5,-975.2 411.5,-975.2 411.5,-953.2 190.5,-953.2"/>
<text text-anchor="start" x="210.5" y="-960.3" font-family="Helvetica,sans-Serif" font-size="11.00" fill="#000000">cldf_metaLanguageReference</text>
<polygon fill="none" stroke="#000000" points="190.5,-931.2 190.5,-953.2 411.5,-953.2 411.5,-931.2 190.5,-931.2"/>
<text text-anchor="start" x="210.5" y="-938.3" font-family="Helvetica,sans-Serif" font-size="11.00" fill="#000000">cldf_comment</text>
<polygon fill="#ffffff" stroke="transparent" points="190.5,-912.2 190.5,-931.2 274.5,-931.2 274.5,-912.2 190.5,-912.2"/>
<polygon fill="none" stroke="#000000" points="190.5,-912.2 190.5,-931.2 274.5,-931.2 274.5,-912.2 190.5,-912.2"/>
<text text-anchor="start" x="193.5" y="-918.3" font-family="Helvetica,sans-Serif" font-size="11.00" fill="#000000"> &#160;</text>
<polygon fill="#ffffff" stroke="transparent" points="274.5,-912.2 274.5,-931.2 354.5,-931.2 354.5,-912.2 274.5,-912.2"/>
<polygon fill="none" stroke="#000000" points="274.5,-912.2 274.5,-931.2 354.5,-931.2 354.5,-912.2 274.5,-912.2"/>
<text text-anchor="start" x="312.9956" y="-918.3" font-family="Helvetica,sans-Serif" font-size="11.00" fill="#000000">90 rows</text>
<polygon fill="#ffffff" stroke="transparent" points="354.5,-912.2 354.5,-931.2 411.5,-931.2 411.5,-912.2 354.5,-912.2"/>
<polygon fill="none" stroke="#000000" points="354.5,-912.2 354.5,-931.2 411.5,-931.2 411.5,-912.2 354.5,-912.2"/>
<text text-anchor="start" x="392.9053" y="-918.3" font-family="Helvetica,sans-Serif" font-size="11.00" fill="#000000">1 &gt;</text>
</a>
</g>
</g>
<!-- ParameterTable -->
<g id="node2" class="node">
<title>ParameterTable</title>
<g id="a_node2"><a xlink:href="../../tables/ParameterTable.html" xlink:title="ParameterTable" target="_top">
<polygon fill="#ffffff" stroke="transparent" points="8,-717.2 8,-847.2 141,-847.2 141,-717.2 8,-717.2"/>
<polygon fill="#f5f5f5" stroke="transparent" points="8.5,-824.2 8.5,-847.2 141.5,-847.2 141.5,-824.2 8.5,-824.2"/>
<polygon fill="none" stroke="#000000" points="8.5,-824.2 8.5,-847.2 141.5,-847.2 141.5,-824.2 8.5,-824.2"/>
<text text-anchor="start" x="13.5" y="-833.3" font-family="Helvetica,sans-Serif" font-weight="bold" font-size="11.00" fill="#000000">ParameterTable</text>
<text text-anchor="start" x="106.5437" y="-832.3" font-family="Helvetica,sans-Serif" font-size="11.00" fill="#000000">[table]</text>
<polygon fill="none" stroke="#000000" points="8.5,-802.2 8.5,-824.2 141.5,-824.2 141.5,-802.2 8.5,-802.2"/>
<image xlink:href="../../images/primaryKeys.png" width="11px" height="12px" preserveAspectRatio="xMinYMin meet" x="13.5" y="-819.2"/>
<text text-anchor="start" x="28.5" y="-809.3" font-family="Helvetica,sans-Serif" font-size="11.00" fill="#000000">cldf_id</text>
<polygon fill="none" stroke="#000000" points="8.5,-780.2 8.5,-802.2 141.5,-802.2 141.5,-780.2 8.5,-780.2"/>
<text text-anchor="start" x="28.5" y="-787.3" font-family="Helvetica,sans-Serif" font-size="11.00" fill="#000000">cldf_name</text>
<polygon fill="none" stroke="#000000" points="8.5,-758.2 8.5,-780.2 141.5,-780.2 141.5,-758.2 8.5,-758.2"/>
<text text-anchor="start" x="28.5" y="-765.3" font-family="Helvetica,sans-Serif" font-size="11.00" fill="#000000">cldf_description</text>
<polygon fill="none" stroke="#000000" points="8.5,-736.2 8.5,-758.2 141.5,-758.2 141.5,-736.2 8.5,-736.2"/>
<text text-anchor="start" x="28.5" y="-743.3" font-family="Helvetica,sans-Serif" font-size="11.00" fill="#000000">cldf_columnSpec</text>
<polygon fill="#ffffff" stroke="transparent" points="8.5,-717.2 8.5,-736.2 48.5,-736.2 48.5,-717.2 8.5,-717.2"/>
<polygon fill="none" stroke="#000000" points="8.5,-717.2 8.5,-736.2 48.5,-736.2 48.5,-717.2 8.5,-717.2"/>
<text text-anchor="start" x="11.5" y="-723.3" font-family="Helvetica,sans-Serif" font-size="11.00" fill="#000000"> &#160;</text>
<polygon fill="#ffffff" stroke="transparent" points="48.5,-717.2 48.5,-736.2 106.5,-736.2 106.5,-717.2 48.5,-717.2"/>
<polygon fill="none" stroke="#000000" points="48.5,-717.2 48.5,-736.2 106.5,-736.2 106.5,-717.2 48.5,-717.2"/>
<text text-anchor="start" x="64.9956" y="-723.3" font-family="Helvetica,sans-Serif" font-size="11.00" fill="#000000">17 rows</text>
<polygon fill="#ffffff" stroke="transparent" points="106.5,-717.2 106.5,-736.2 141.5,-736.2 141.5,-717.2 106.5,-717.2"/>
<polygon fill="none" stroke="#000000" points="106.5,-717.2 106.5,-736.2 141.5,-736.2 141.5,-717.2 106.5,-717.2"/>
<text text-anchor="start" x="122.9053" y="-723.3" font-family="Helvetica,sans-Serif" font-size="11.00" fill="#000000">1 &gt;</text>
</a>
</g>
</g>
<!-- SourceTable -->
<g id="node3" class="node">
<title>SourceTable</title>
<g id="a_node3"><a xlink:href="../../tables/SourceTable.html" xlink:title="SourceTable" target="_top">
<polygon fill="#ffffff" stroke="transparent" points="243,-38.2 243,-696.2 358,-696.2 358,-38.2 243,-38.2"/>
<polygon fill="#f5f5f5" stroke="transparent" points="243.5,-673.2 243.5,-696.2 358.5,-696.2 358.5,-673.2 243.5,-673.2"/>
<polygon fill="none" stroke="#000000" points="243.5,-673.2 243.5,-696.2 358.5,-696.2 358.5,-673.2 243.5,-673.2"/>
<text text-anchor="start" x="248.5" y="-682.3" font-family="Helvetica,sans-Serif" font-weight="bold" font-size="11.00" fill="#000000">SourceTable</text>
<text text-anchor="start" x="323.5437" y="-681.3" font-family="Helvetica,sans-Serif" font-size="11.00" fill="#000000">[table]</text>
<polygon fill="none" stroke="#000000" points="243.5,-651.2 243.5,-673.2 358.5,-673.2 358.5,-651.2 243.5,-651.2"/>
<image xlink:href="../../images/primaryKeys.png" width="11px" height="12px" preserveAspectRatio="xMinYMin meet" x="248.5" y="-668.2"/>
<text text-anchor="start" x="263.5" y="-658.3" font-family="Helvetica,sans-Serif" font-size="11.00" fill="#000000">id</text>
<polygon fill="none" stroke="#000000" points="243.5,-629.2 243.5,-651.2 358.5,-651.2 358.5,-629.2 243.5,-629.2"/>
<text text-anchor="start" x="263.5" y="-636.3" font-family="Helvetica,sans-Serif" font-size="11.00" fill="#000000">genre</text>
<polygon fill="none" stroke="#000000" points="243.5,-607.2 243.5,-629.2 358.5,-629.2 358.5,-607.2 243.5,-607.2"/>
<text text-anchor="start" x="263.5" y="-614.3" font-family="Helvetica,sans-Serif" font-size="11.00" fill="#000000">address</text>
<polygon fill="none" stroke="#000000" points="243.5,-585.2 243.5,-607.2 358.5,-607.2 358.5,-585.2 243.5,-585.2"/>
<text text-anchor="start" x="263.5" y="-592.3" font-family="Helvetica,sans-Serif" font-size="11.00" fill="#000000">annote</text>
<polygon fill="none" stroke="#000000" points="243.5,-563.2 243.5,-585.2 358.5,-585.2 358.5,-563.2 243.5,-563.2"/>
<text text-anchor="start" x="263.5" y="-570.3" font-family="Helvetica,sans-Serif" font-size="11.00" fill="#000000">author</text>
<polygon fill="none" stroke="#000000" points="243.5,-541.2 243.5,-563.2 358.5,-563.2 358.5,-541.2 243.5,-541.2"/>
<text text-anchor="start" x="263.5" y="-548.3" font-family="Helvetica,sans-Serif" font-size="11.00" fill="#000000">booktitle</text>
<polygon fill="none" stroke="#000000" points="243.5,-519.2 243.5,-541.2 358.5,-541.2 358.5,-519.2 243.5,-519.2"/>
<text text-anchor="start" x="263.5" y="-526.3" font-family="Helvetica,sans-Serif" font-size="11.00" fill="#000000">chapter</text>
<polygon fill="none" stroke="#000000" points="243.5,-497.2 243.5,-519.2 358.5,-519.2 358.5,-497.2 243.5,-497.2"/>
<text text-anchor="start" x="263.5" y="-504.3" font-family="Helvetica,sans-Serif" font-size="11.00" fill="#000000">crossref</text>
<polygon fill="none" stroke="#000000" points="243.5,-475.2 243.5,-497.2 358.5,-497.2 358.5,-475.2 243.5,-475.2"/>
<text text-anchor="start" x="263.5" y="-482.3" font-family="Helvetica,sans-Serif" font-size="11.00" fill="#000000">edition</text>
<polygon fill="none" stroke="#000000" points="243.5,-453.2 243.5,-475.2 358.5,-475.2 358.5,-453.2 243.5,-453.2"/>
<text text-anchor="start" x="263.5" y="-460.3" font-family="Helvetica,sans-Serif" font-size="11.00" fill="#000000">editor</text>
<polygon fill="none" stroke="#000000" points="243.5,-431.2 243.5,-453.2 358.5,-453.2 358.5,-431.2 243.5,-431.2"/>
<text text-anchor="start" x="263.5" y="-438.3" font-family="Helvetica,sans-Serif" font-size="11.00" fill="#000000">eprint</text>
<polygon fill="none" stroke="#000000" points="243.5,-409.2 243.5,-431.2 358.5,-431.2 358.5,-409.2 243.5,-409.2"/>
<text text-anchor="start" x="263.5" y="-416.3" font-family="Helvetica,sans-Serif" font-size="11.00" fill="#000000">howpublished</text>
<polygon fill="none" stroke="#000000" points="243.5,-387.2 243.5,-409.2 358.5,-409.2 358.5,-387.2 243.5,-387.2"/>
<text text-anchor="start" x="263.5" y="-394.3" font-family="Helvetica,sans-Serif" font-size="11.00" fill="#000000">institution</text>
<polygon fill="none" stroke="#000000" points="243.5,-365.2 243.5,-387.2 358.5,-387.2 358.5,-365.2 243.5,-365.2"/>
<text text-anchor="start" x="263.5" y="-372.3" font-family="Helvetica,sans-Serif" font-size="11.00" fill="#000000">journal</text>
<polygon fill="none" stroke="#000000" points="243.5,-343.2 243.5,-365.2 358.5,-365.2 358.5,-343.2 243.5,-343.2"/>
<text text-anchor="start" x="263.5" y="-350.3" font-family="Helvetica,sans-Serif" font-size="11.00" fill="#000000">key</text>
<polygon fill="none" stroke="#000000" points="243.5,-321.2 243.5,-343.2 358.5,-343.2 358.5,-321.2 243.5,-321.2"/>
<text text-anchor="start" x="263.5" y="-328.3" font-family="Helvetica,sans-Serif" font-size="11.00" fill="#000000">month</text>
<polygon fill="none" stroke="#000000" points="243.5,-299.2 243.5,-321.2 358.5,-321.2 358.5,-299.2 243.5,-299.2"/>
<text text-anchor="start" x="263.5" y="-306.3" font-family="Helvetica,sans-Serif" font-size="11.00" fill="#000000">note</text>
<polygon fill="none" stroke="#000000" points="243.5,-277.2 243.5,-299.2 358.5,-299.2 358.5,-277.2 243.5,-277.2"/>
<text text-anchor="start" x="263.5" y="-284.3" font-family="Helvetica,sans-Serif" font-size="11.00" fill="#000000">number</text>
<polygon fill="none" stroke="#000000" points="243.5,-255.2 243.5,-277.2 358.5,-277.2 358.5,-255.2 243.5,-255.2"/>
<text text-anchor="start" x="263.5" y="-262.3" font-family="Helvetica,sans-Serif" font-size="11.00" fill="#000000">organization</text>
<polygon fill="none" stroke="#000000" points="243.5,-233.2 243.5,-255.2 358.5,-255.2 358.5,-233.2 243.5,-233.2"/>
<text text-anchor="start" x="263.5" y="-240.3" font-family="Helvetica,sans-Serif" font-size="11.00" fill="#000000">pages</text>
<polygon fill="none" stroke="#000000" points="243.5,-211.2 243.5,-233.2 358.5,-233.2 358.5,-211.2 243.5,-211.2"/>
<text text-anchor="start" x="263.5" y="-218.3" font-family="Helvetica,sans-Serif" font-size="11.00" fill="#000000">publisher</text>
<polygon fill="none" stroke="#000000" points="243.5,-189.2 243.5,-211.2 358.5,-211.2 358.5,-189.2 243.5,-189.2"/>
<text text-anchor="start" x="263.5" y="-196.3" font-family="Helvetica,sans-Serif" font-size="11.00" fill="#000000">school</text>
<polygon fill="none" stroke="#000000" points="243.5,-167.2 243.5,-189.2 358.5,-189.2 358.5,-167.2 243.5,-167.2"/>
<text text-anchor="start" x="263.5" y="-174.3" font-family="Helvetica,sans-Serif" font-size="11.00" fill="#000000">series</text>
<polygon fill="none" stroke="#000000" points="243.5,-145.2 243.5,-167.2 358.5,-167.2 358.5,-145.2 243.5,-145.2"/>
<text text-anchor="start" x="263.5" y="-152.3" font-family="Helvetica,sans-Serif" font-size="11.00" fill="#000000">title</text>
<polygon fill="none" stroke="#000000" points="243.5,-123.2 243.5,-145.2 358.5,-145.2 358.5,-123.2 243.5,-123.2"/>
<text text-anchor="start" x="263.5" y="-130.3" font-family="Helvetica,sans-Serif" font-size="11.00" fill="#000000">type</text>
<polygon fill="none" stroke="#000000" points="243.5,-101.2 243.5,-123.2 358.5,-123.2 358.5,-101.2 243.5,-101.2"/>
<text text-anchor="start" x="263.5" y="-108.3" font-family="Helvetica,sans-Serif" font-size="11.00" fill="#000000">url</text>
<polygon fill="none" stroke="#000000" points="243.5,-79.2 243.5,-101.2 358.5,-101.2 358.5,-79.2 243.5,-79.2"/>
<text text-anchor="start" x="263.5" y="-86.3" font-family="Helvetica,sans-Serif" font-size="11.00" fill="#000000">volume</text>
<polygon fill="none" stroke="#000000" points="243.5,-57.2 243.5,-79.2 358.5,-79.2 358.5,-57.2 243.5,-57.2"/>
<text text-anchor="start" x="263.5" y="-64.3" font-family="Helvetica,sans-Serif" font-size="11.00" fill="#000000">year</text>
<polygon fill="#ffffff" stroke="transparent" points="243.5,-38.2 243.5,-57.2 277.5,-57.2 277.5,-38.2 243.5,-38.2"/>
<polygon fill="none" stroke="#000000" points="243.5,-38.2 243.5,-57.2 277.5,-57.2 277.5,-38.2 243.5,-38.2"/>
<text text-anchor="start" x="246.5" y="-44.3" font-family="Helvetica,sans-Serif" font-size="11.00" fill="#000000"> &#160;</text>
<polygon fill="#ffffff" stroke="transparent" points="277.5,-38.2 277.5,-57.2 326.5,-57.2 326.5,-38.2 277.5,-38.2"/>
<polygon fill="none" stroke="#000000" points="277.5,-38.2 277.5,-57.2 326.5,-57.2 326.5,-38.2 277.5,-38.2"/>
<text text-anchor="start" x="291.1105" y="-44.3" font-family="Helvetica,sans-Serif" font-size="11.00" fill="#000000">0 rows</text>
<polygon fill="#ffffff" stroke="transparent" points="326.5,-38.2 326.5,-57.2 358.5,-57.2 358.5,-38.2 326.5,-38.2"/>
<polygon fill="none" stroke="#000000" points="326.5,-38.2 326.5,-57.2 358.5,-57.2 358.5,-38.2 326.5,-38.2"/>
<text text-anchor="start" x="339.9053" y="-44.3" font-family="Helvetica,sans-Serif" font-size="11.00" fill="#000000">1 &gt;</text>
</a>
</g>
</g>
<!-- ValueTable -->
<g id="node4" class="node">
<title>ValueTable</title>
<g id="a_node4"><a xlink:href="../../tables/ValueTable.html" xlink:title="ValueTable" target="_top">
<polygon fill="#ffffff" stroke="transparent" points="205,-717.2 205,-891.2 396,-891.2 396,-717.2 205,-717.2"/>
<polygon fill="#f5f5f5" stroke="transparent" points="205.5,-868.2 205.5,-891.2 396.5,-891.2 396.5,-868.2 205.5,-868.2"/>
<polygon fill="none" stroke="#000000" points="205.5,-868.2 205.5,-891.2 396.5,-891.2 396.5,-868.2 205.5,-868.2"/>
<text text-anchor="start" x="210.5" y="-877.3" font-family="Helvetica,sans-Serif" font-weight="bold" font-size="11.00" fill="#000000">ValueTable</text>
<text text-anchor="start" x="361.5437" y="-876.3" font-family="Helvetica,sans-Serif" font-size="11.00" fill="#000000">[table]</text>
<polygon fill="none" stroke="#000000" points="205.5,-846.2 205.5,-868.2 396.5,-868.2 396.5,-846.2 205.5,-846.2"/>
<image xlink:href="../../images/primaryKeys.png" width="11px" height="12px" preserveAspectRatio="xMinYMin meet" x="210.5" y="-863.2"/>
<text text-anchor="start" x="225.5" y="-853.3" font-family="Helvetica,sans-Serif" font-size="11.00" fill="#000000">cldf_id</text>
<polygon fill="none" stroke="#000000" points="205.5,-824.2 205.5,-846.2 396.5,-846.2 396.5,-824.2 205.5,-824.2"/>
<text text-anchor="start" x="225.5" y="-831.3" font-family="Helvetica,sans-Serif" font-size="11.00" fill="#000000">cldf_languageReference</text>
<polygon fill="none" stroke="#000000" points="205.5,-802.2 205.5,-824.2 396.5,-824.2 396.5,-802.2 205.5,-802.2"/>
<image xlink:href="../../images/foreignKeys.png" width="11px" height="12px" preserveAspectRatio="xMinYMin meet" x="210.5" y="-819.2"/>
<text text-anchor="start" x="225.5" y="-809.3" font-family="Helvetica,sans-Serif" font-size="11.00" fill="#000000">cldf_parameterReference</text>
<polygon fill="none" stroke="#000000" points="205.5,-780.2 205.5,-802.2 396.5,-802.2 396.5,-780.2 205.5,-780.2"/>
<text text-anchor="start" x="225.5" y="-787.3" font-family="Helvetica,sans-Serif" font-size="11.00" fill="#000000">cldf_value</text>
<polygon fill="none" stroke="#000000" points="205.5,-758.2 205.5,-780.2 396.5,-780.2 396.5,-758.2 205.5,-758.2"/>
<text text-anchor="start" x="225.5" y="-765.3" font-family="Helvetica,sans-Serif" font-size="11.00" fill="#000000">cldf_codeReference</text>
<polygon fill="none" stroke="#000000" points="205.5,-736.2 205.5,-758.2 396.5,-758.2 396.5,-736.2 205.5,-736.2"/>
<text text-anchor="start" x="225.5" y="-743.3" font-family="Helvetica,sans-Serif" font-size="11.00" fill="#000000">cldf_comment</text>
<polygon fill="#ffffff" stroke="transparent" points="205.5,-717.2 205.5,-736.2 278.5,-736.2 278.5,-717.2 205.5,-717.2"/>
<polygon fill="none" stroke="#000000" points="205.5,-717.2 205.5,-736.2 278.5,-736.2 278.5,-717.2 205.5,-717.2"/>
<text text-anchor="start" x="208.5" y="-723.3" font-family="Helvetica,sans-Serif" font-size="11.00" fill="#000000">&lt; 1</text>
<polygon fill="#ffffff" stroke="transparent" points="278.5,-717.2 278.5,-736.2 348.5,-736.2 348.5,-717.2 278.5,-717.2"/>
<polygon fill="none" stroke="#000000" points="278.5,-717.2 278.5,-736.2 348.5,-736.2 348.5,-717.2 278.5,-717.2"/>
<text text-anchor="start" x="306.9956" y="-723.3" font-family="Helvetica,sans-Serif" font-size="11.00" fill="#000000">17 rows</text>
<polygon fill="#ffffff" stroke="transparent" points="348.5,-717.2 348.5,-736.2 396.5,-736.2 396.5,-717.2 348.5,-717.2"/>
<polygon fill="none" stroke="#000000" points="348.5,-717.2 348.5,-736.2 396.5,-736.2 396.5,-717.2 348.5,-717.2"/>
<text text-anchor="start" x="377.9053" y="-723.3" font-family="Helvetica,sans-Serif" font-size="11.00" fill="#000000">2 &gt;</text>
</a>
</g>
</g>
<!-- ValueTable&#45;&gt;ParameterTable -->
<g id="edge1" class="edge">
<title>ValueTable:w&#45;&gt;ParameterTable:e</title>
<path fill="none" stroke="#000000" d="M190.9568,-813.2C173.464,-813.2 164.3889,-813.2 141.5,-813.2"/>
<polygon fill="#000000" stroke="#000000" points="197.5,-813.2001 205.5,-816.8 201.5,-813.2 205.5,-813.2 205.5,-813.2 205.5,-813.2 201.5,-813.2 205.5,-809.6 197.5,-813.2001 197.5,-813.2001"/>
<ellipse fill="none" stroke="#000000" cx="194.3" cy="-813.2001" rx="3.2" ry="3.2"/>
</g>
<!-- ValueTable_ExampleTable -->
<g id="node5" class="node">
<title>ValueTable_ExampleTable</title>
<g id="a_node5"><a xlink:href="../../tables/ValueTable_ExampleTable.html" xlink:title="ValueTable_ExampleTable" target="_top">
<polygon fill="#ffffff" stroke="transparent" points="460,-858.2 460,-966.2 656,-966.2 656,-858.2 460,-858.2"/>
<polygon fill="#f5f5f5" stroke="transparent" points="460,-943.2 460,-966.2 656,-966.2 656,-943.2 460,-943.2"/>
<polygon fill="none" stroke="#000000" points="460,-943.2 460,-966.2 656,-966.2 656,-943.2 460,-943.2"/>
<text text-anchor="start" x="465" y="-952.3" font-family="Helvetica,sans-Serif" font-weight="bold" font-size="11.00" fill="#000000">ValueTable_ExampleTable</text>
<text text-anchor="start" x="621.0437" y="-951.3" font-family="Helvetica,sans-Serif" font-size="11.00" fill="#000000">[table]</text>
<polygon fill="none" stroke="#000000" points="460,-921.2 460,-943.2 656,-943.2 656,-921.2 460,-921.2"/>
<image xlink:href="../../images/foreignKeys.png" width="11px" height="12px" preserveAspectRatio="xMinYMin meet" x="465" y="-938.2"/>
<text text-anchor="start" x="480" y="-928.3" font-family="Helvetica,sans-Serif" font-size="11.00" fill="#000000">ValueTable_cldf_id</text>
<polygon fill="none" stroke="#000000" points="460,-899.2 460,-921.2 656,-921.2 656,-899.2 460,-899.2"/>
<image xlink:href="../../images/foreignKeys.png" width="11px" height="12px" preserveAspectRatio="xMinYMin meet" x="465" y="-916.2"/>
<text text-anchor="start" x="480" y="-906.3" font-family="Helvetica,sans-Serif" font-size="11.00" fill="#000000">ExampleTable_cldf_id</text>
<polygon fill="none" stroke="#000000" points="460,-877.2 460,-899.2 656,-899.2 656,-877.2 460,-877.2"/>
<text text-anchor="start" x="480" y="-884.3" font-family="Helvetica,sans-Serif" font-size="11.00" fill="#000000">context</text>
<polygon fill="#ffffff" stroke="transparent" points="460,-858.2 460,-877.2 540,-877.2 540,-858.2 460,-858.2"/>
<polygon fill="none" stroke="#000000" points="460,-858.2 460,-877.2 540,-877.2 540,-858.2 460,-858.2"/>
<text text-anchor="start" x="463" y="-864.3" font-family="Helvetica,sans-Serif" font-size="11.00" fill="#000000">&lt; 2</text>
<polygon fill="#ffffff" stroke="transparent" points="540,-858.2 540,-877.2 614,-877.2 614,-858.2 540,-858.2"/>
<polygon fill="none" stroke="#000000" points="540,-858.2 540,-877.2 614,-877.2 614,-858.2 540,-858.2"/>
<text text-anchor="start" x="572.4956" y="-864.3" font-family="Helvetica,sans-Serif" font-size="11.00" fill="#000000">12 rows</text>
<polygon fill="#ffffff" stroke="transparent" points="614,-858.2 614,-877.2 656,-877.2 656,-858.2 614,-858.2"/>
<polygon fill="none" stroke="#000000" points="614,-858.2 614,-877.2 656,-877.2 656,-858.2 614,-858.2"/>
<text text-anchor="start" x="646.8862" y="-864.3" font-family="Helvetica,sans-Serif" font-size="11.00" fill="#000000"> &#160;</text>
</a>
</g>
</g>
<!-- ValueTable_ExampleTable&#45;&gt;ExampleTable -->
<g id="edge2" class="edge">
<title>ValueTable_ExampleTable:w&#45;&gt;ExampleTable:e</title>
<path fill="none" stroke="#000000" d="M445.6078,-912.5517C389.904,-934.0829 491.2577,-1096.2 411.5,-1096.2"/>
<polygon fill="#000000" stroke="#000000" points="452.1047,-911.4902 460.5806,-913.7529 456.0524,-910.8451 460,-910.2 460,-910.2 460,-910.2 456.0524,-910.8451 459.4194,-906.6471 452.1047,-911.4902 452.1047,-911.4902"/>
<ellipse fill="none" stroke="#000000" cx="448.9466" cy="-912.0062" rx="3.2" ry="3.2"/>
</g>
<!-- ValueTable_ExampleTable&#45;&gt;ValueTable -->
<g id="edge3" class="edge">
<title>ValueTable_ExampleTable:w&#45;&gt;ValueTable:e</title>
<path fill="none" stroke="#000000" d="M445.8548,-928.5826C421.4685,-913.6011 434.3754,-857.2 396.5,-857.2"/>
<polygon fill="#000000" stroke="#000000" points="452.2494,-930.2179 459.108,-935.6878 456.1247,-931.2089 460,-932.2 460,-932.2 460,-932.2 456.1247,-931.2089 460.892,-928.7122 452.2494,-930.2179 452.2494,-930.2179"/>
<ellipse fill="none" stroke="#000000" cx="449.1492" cy="-929.425" rx="3.2" ry="3.2"/>
</g>
<!-- ValueTable_SourceTable -->
<g id="node6" class="node">
<title>ValueTable_SourceTable</title>
<g id="a_node6"><a xlink:href="../../tables/ValueTable_SourceTable.html" xlink:title="ValueTable_SourceTable" target="_top">
<polygon fill="#ffffff" stroke="transparent" points="465,-707.2 465,-815.2 651,-815.2 651,-707.2 465,-707.2"/>
<polygon fill="#f5f5f5" stroke="transparent" points="465,-792.2 465,-815.2 651,-815.2 651,-792.2 465,-792.2"/>
<polygon fill="none" stroke="#000000" points="465,-792.2 465,-815.2 651,-815.2 651,-792.2 465,-792.2"/>
<text text-anchor="start" x="470" y="-801.3" font-family="Helvetica,sans-Serif" font-weight="bold" font-size="11.00" fill="#000000">ValueTable_SourceTable</text>
<text text-anchor="start" x="616.0437" y="-800.3" font-family="Helvetica,sans-Serif" font-size="11.00" fill="#000000">[table]</text>
<polygon fill="none" stroke="#000000" points="465,-770.2 465,-792.2 651,-792.2 651,-770.2 465,-770.2"/>
<image xlink:href="../../images/foreignKeys.png" width="11px" height="12px" preserveAspectRatio="xMinYMin meet" x="470" y="-787.2"/>
<text text-anchor="start" x="485" y="-777.3" font-family="Helvetica,sans-Serif" font-size="11.00" fill="#000000">ValueTable_cldf_id</text>
<polygon fill="none" stroke="#000000" points="465,-748.2 465,-770.2 651,-770.2 651,-748.2 465,-748.2"/>
<image xlink:href="../../images/foreignKeys.png" width="11px" height="12px" preserveAspectRatio="xMinYMin meet" x="470" y="-765.2"/>
<text text-anchor="start" x="485" y="-755.3" font-family="Helvetica,sans-Serif" font-size="11.00" fill="#000000">SourceTable_id</text>
<polygon fill="none" stroke="#000000" points="465,-726.2 465,-748.2 651,-748.2 651,-726.2 465,-726.2"/>
<text text-anchor="start" x="485" y="-733.3" font-family="Helvetica,sans-Serif" font-size="11.00" fill="#000000">context</text>
<polygon fill="#ffffff" stroke="transparent" points="465,-707.2 465,-726.2 543,-726.2 543,-707.2 465,-707.2"/>
<polygon fill="none" stroke="#000000" points="465,-707.2 465,-726.2 543,-726.2 543,-707.2 465,-707.2"/>
<text text-anchor="start" x="468" y="-713.3" font-family="Helvetica,sans-Serif" font-size="11.00" fill="#000000">&lt; 2</text>
<polygon fill="#ffffff" stroke="transparent" points="543,-707.2 543,-726.2 610,-726.2 610,-707.2 543,-707.2"/>
<polygon fill="none" stroke="#000000" points="543,-707.2 543,-726.2 610,-726.2 610,-707.2 543,-707.2"/>
<text text-anchor="start" x="574.6105" y="-713.3" font-family="Helvetica,sans-Serif" font-size="11.00" fill="#000000">0 rows</text>
<polygon fill="#ffffff" stroke="transparent" points="610,-707.2 610,-726.2 651,-726.2 651,-707.2 610,-707.2"/>
<polygon fill="none" stroke="#000000" points="610,-707.2 610,-726.2 651,-726.2 651,-707.2 610,-707.2"/>
<text text-anchor="start" x="641.8862" y="-713.3" font-family="Helvetica,sans-Serif" font-size="11.00" fill="#000000"> &#160;</text>
</a>
</g>
</g>
<!-- ValueTable_SourceTable&#45;&gt;SourceTable -->
<g id="edge4" class="edge">
<title>ValueTable_SourceTable:w&#45;&gt;SourceTable:e</title>
<path fill="none" stroke="#000000" d="M450.7038,-755.8662C435.8137,-747.1468 437.4939,-723.1679 419,-706.2 394.5011,-683.7226 391.748,-662.2 358.5,-662.2"/>
<polygon fill="#000000" stroke="#000000" points="457.209,-757.3832 464.1824,-762.7059 461.1045,-758.2916 465,-759.2 465,-759.2 465,-759.2 461.1045,-758.2916 465.8176,-755.6941 457.209,-757.3832 457.209,-757.3832"/>
<ellipse fill="none" stroke="#000000" cx="454.0926" cy="-756.6564" rx="3.2" ry="3.2"/>
</g>
<!-- ValueTable_SourceTable&#45;&gt;ValueTable -->
<g id="edge5" class="edge">
<title>ValueTable_SourceTable:w&#45;&gt;ValueTable:e</title>
<path fill="none" stroke="#000000" d="M450.866,-784.4656C424.0772,-799.0125 436.289,-857.2 396.5,-857.2"/>
<polygon fill="#000000" stroke="#000000" points="457.2053,-783.001 465.8104,-784.7076 461.1027,-782.1005 465,-781.2 465,-781.2 465,-781.2 461.1027,-782.1005 464.1896,-777.6924 457.2053,-783.001 457.2053,-783.001"/>
<ellipse fill="none" stroke="#000000" cx="454.0875" cy="-783.7214" rx="3.2" ry="3.2"/>
</g>
</g>
</svg>
